HIERARCHY
ROOT Bone-00
{
	OFFSET 0.000000 0.000000 0.000000
	CHANNELS 6 Xposition Yposition Zposition Xrotation Yrotation Zrotation
	JOINT Bone-20
	{
		OFFSET 0.000000 0.000000 2.000000
		CHANNELS 3 Xrotation Yrotation Zrotation
		JOINT Bone-60
		{
			OFFSET 0.000000 0.000000 -0.300000
			CHANNELS 3 Xrotation Yrotation Zrotation
			JOINT Bone-61
			{
				OFFSET 0.300000 0.000000 0.000000
				CHANNELS 3 Xrotation Yrotation Zrotation
				JOINT Bone-62
				{
					OFFSET 0.000000 0.000000 -0.700000
					CHANNELS 3 Xrotation Yrotation Zrotation
					JOINT Bone-63
					{
						OFFSET 0.000000 0.000000 -0.800000
						CHANNELS 3 Xrotation Yrotation Zrotation
						End Site
						{
							OFFSET 0.000000 -0.300000 0.000000
						}
					}
				}
			}
		}
		JOINT Bone-70
		{
			OFFSET 0.000000 0.000000 -0.300000
			CHANNELS 3 Xrotation Yrotation Zrotation
			JOINT Bone-71
			{
				OFFSET -0.300000 0.000000 0.000000
				CHANNELS 3 Xrotation Yrotation Zrotation
				JOINT Bone-72
				{
					OFFSET 0.000000 0.000000 -0.700000
					CHANNELS 3 Xrotation Yrotation Zrotation
					JOINT Bone-73
					{
						OFFSET 0.000000 0.000000 -0.800000
						CHANNELS 3 Xrotation Yrotation Zrotation
						End Site
						{
							OFFSET 0.000000 -0.300000 0.000000
						}
					}
				}
			}
		}
	}
	JOINT Bone-10
	{
		OFFSET 0.000000 0.000000 2.000000
		CHANNELS 3 Xrotation Yrotation Zrotation
		JOINT Bone-30
		{
			OFFSET 0.000000 0.000000 1.000000
			CHANNELS 3 Xrotation Yrotation Zrotation
			End Site
			{
				OFFSET 0.000000 0.000000 1.000000
			}
		}
		JOINT Bone-40
		{
			OFFSET 0.000000 0.000000 1.000000
			CHANNELS 3 Xrotation Yrotation Zrotation
			JOINT Bone-41
			{
				OFFSET 0.500000 0.000000 -0.200000
				CHANNELS 3 Xrotation Yrotation Zrotation
				JOINT Bone-42
				{
					OFFSET 0.500000 0.000000 0.000000
					CHANNELS 3 Xrotation Yrotation Zrotation
					JOINT Bone-43
					{
						OFFSET 0.600000 0.000000 0.000000
						CHANNELS 3 Xrotation Yrotation Zrotation
						End Site
						{
							OFFSET 0.000000 -0.300000 0.000000
						}
					}
				}
			}
		}
		JOINT Bone-50
		{
			OFFSET 0.000000 0.000000 1.000000
			CHANNELS 3 Xrotation Yrotation Zrotation
			JOINT Bone-51
			{
				OFFSET -0.500000 0.000000 -0.204061
				CHANNELS 3 Xrotation Yrotation Zrotation
				JOINT Bone-52
				{
					OFFSET -0.500000 0.000000 0.004061
					CHANNELS 3 Xrotation Yrotation Zrotation
					JOINT Bone-53
					{
						OFFSET -0.600000 0.000000 0.000000
						CHANNELS 3 Xrotation Yrotation Zrotation
						End Site
						{
							OFFSET 0.000000 -0.300000 0.000000
						}
					}
				}
			}
		}
	}
}
MOTION
Frames: 11
Frame Time: 0.050000
0.000000 0.000000 0.000000 -0.000000 0.000000 -0.000000 -0.000000 0.000000 -0.000000 -0.000000 0.000000 0.000000 -0.000000 0.000000 -0.000000 -0.000000 0.000000 -0.000000 -0.000000 0.000000 -0.000000 -0.000000 0.000000 0.000000 -0.000000 0.000000 -0.000000 -0.000000 -0.000000 -0.000000 -0.000000 0.000000 -0.000000 -0.000000 0.000000 -0.000000 -0.000000 0.000000 -0.000000 -0.000000 -0.000003 -0.000001 0.000012 77.319613 0.000068 -0.000000 -0.000001 0.000000 -0.000000 -11.581883 -0.000005 -0.000000 0.000000 0.000000 -1.670470 -77.311109 -2.080675 -0.000000 -0.000001 -0.000000 -0.000000 -0.000001 0.000000 
0.000000 0.000000 0.000000 -0.000000 0.000000 -0.000000 -0.000000 0.000000 -0.000000 -0.000000 0.000000 0.000000 -0.000000 0.000000 -0.000000 -0.000000 0.000000 -0.000000 -0.000000 0.000000 -0.000000 -0.000000 0.000000 0.000000 -0.000000 0.000000 -0.000000 -0.000000 -0.000000 -0.000000 -0.000000 0.000000 -0.000000 -0.000000 0.000000 -0.000000 -0.000000 0.000000 -0.000000 -0.000000 -0.000003 -0.000001 -16.338350 78.480001 9.800338 6.514862 5.261202 -12.174478 6.100026 -11.549650 0.617482 -0.000000 0.000000 0.000000 -17.928169 -78.404725 -11.784666 6.514864 -5.261201 12.174474 0.000000 0.000000 -0.000001 
0.000000 0.000000 0.000000 -0.000000 0.000000 -0.000000 -0.000000 0.000000 -0.000000 -0.000000 0.000000 0.000000 -0.000000 0.000000 -0.000000 -0.000000 0.000000 -0.000000 -0.000000 0.000000 -0.000000 -0.000000 0.000000 0.000000 -0.000000 0.000000 -0.000000 -0.000000 -0.000000 -0.000000 -0.000000 0.000000 -0.000000 -0.000000 0.000000 -0.000000 -0.000000 0.000000 -0.000000 -0.000000 -0.000003 -0.000001 -58.029902 78.516685 36.713759 24.139089 11.089794 -41.162507 20.440099 -11.223135 2.029693 -0.000000 0.000000 0.000000 -58.884953 -78.359577 -37.926012 24.139097 -11.089787 41.162511 0.000000 -0.000000 0.000001 
0.000000 0.000000 0.000000 -0.000000 0.000000 -0.000000 -0.000000 0.000000 -0.000000 -0.000000 0.000000 0.000000 -0.000000 0.000000 -0.000000 -0.000000 0.000000 -0.000000 -0.000000 0.000000 -0.000000 -0.000000 0.000000 0.000000 -0.000000 0.000000 -0.000000 -0.000000 -0.000000 -0.000000 -0.000000 0.000000 -0.000000 -0.000000 0.000000 -0.000000 -0.000000 0.000000 -0.000000 -0.000000 -0.000003 -0.000001 -93.367866 74.966148 56.241676 41.431637 8.044879 -68.933213 36.697838 -10.450351 3.474596 -0.000000 0.000000 0.000000 -93.656449 -74.861066 -56.846701 41.431634 -8.044860 68.933213 -0.000002 -0.000001 0.000001 
0.000000 0.000000 0.000000 -0.000000 0.000000 -0.000000 -0.000000 0.000000 -0.000000 -0.000000 0.000000 0.000000 -0.000000 0.000000 -0.000000 -0.000000 0.000000 -0.000000 -0.000000 0.000000 -0.000000 -0.000000 0.000000 0.000000 -0.000000 0.000000 -0.000000 -0.000000 -0.000000 -0.000000 -0.000000 0.000000 -0.000000 -0.000000 0.000000 -0.000000 -0.000000 0.000000 -0.000000 -0.000000 -0.000003 -0.000001 -111.035141 71.234051 62.321877 50.479681 2.422918 -84.863010 49.238987 -9.596324 4.405618 -0.000000 0.000000 0.000000 -111.240238 -71.201457 -62.814702 50.479684 -2.422901 84.863004 -0.000002 -0.000003 -0.000002 
0.000000 0.000000 0.000000 -0.000000 0.000000 -0.000000 -0.000000 0.000000 -0.000000 -0.000000 0.000000 0.000000 -0.000000 0.000000 -0.000000 -0.000000 0.000000 -0.000000 -0.000000 0.000000 -0.000000 -0.000000 0.000000 0.000000 -0.000000 0.000000 -0.000000 -0.000000 -0.000000 -0.000000 -0.000000 0.000000 -0.000000 -0.000000 0.000000 -0.000000 -0.000000 0.000000 -0.000000 -0.000000 -0.000003 -0.000001 -116.565047 69.715789 63.434972 53.130105 0.000009 -89.999996 54.157577 -9.209007 4.715680 -0.000000 0.000000 0.000000 -116.770635 -69.712223 -63.917887 53.130098 0.000011 90.000003 -0.000001 -0.000002 0.000001 
0.000000 0.000000 0.000000 -0.000000 0.000000 -0.000000 -0.000000 0.000000 -0.000000 -0.000000 0.000000 0.000000 -0.000000 0.000000 -0.000000 -0.000000 0.000000 -0.000000 -0.000000 0.000000 -0.000000 -0.000000 0.000000 0.000000 -0.000000 0.000000 -0.000000 -0.000000 -0.000000 -0.000000 -0.000000 0.000000 -0.000000 -0.000000 0.000000 -0.000000 -0.000000 0.000000 -0.000000 -0.000000 -0.000003 -0.000001 -116.565047 69.715789 63.434972 52.643342 0.478624 -89.032534 54.157577 -9.209014 4.715682 -0.000000 0.000000 0.000000 -116.770635 -69.712223 -63.917887 52.643342 -0.478599 89.032540 -0.000003 -0.000003 -0.000000 
0.000000 0.000000 0.000000 -0.000000 0.000000 -0.000000 -0.000000 0.000000 -0.000000 -0.000000 0.000000 0.000000 -0.000000 0.000000 -0.000000 -0.000000 0.000000 -0.000000 -0.000000 0.000000 -0.000000 -0.000000 0.000000 0.000000 -0.000000 0.000000 -0.000000 -0.000000 -0.000000 -0.000000 -0.000000 0.000000 -0.000000 -0.000000 0.000000 -0.000000 -0.000000 0.000000 -0.000000 -0.000000 -0.000003 -0.000001 -116.565047 69.715789 63.434972 51.397245 1.633190 -86.607051 54.157584 -9.209015 4.715681 -0.000000 0.000000 0.000000 -116.770635 -69.712223 -63.917887 51.397245 -1.633168 86.607058 0.000001 0.000001 -0.000001 
0.000000 0.000000 0.000000 -0.000000 0.000000 -0.000000 -0.000000 0.000000 -0.000000 -0.000000 0.000000 0.000000 -0.000000 0.000000 -0.000000 -0.000000 0.000000 -0.000000 -0.000000 0.000000 -0.000000 -0.000000 0.000000 0.000000 -0.000000 0.000000 -0.000000 -0.000000 -0.000000 -0.000000 -0.000000 0.000000 -0.000000 -0.000000 0.000000 -0.000000 -0.000000 0.000000 -0.000000 -0.000000 -0.000003 -0.000001 -116.565047 69.715789 63.434972 49.737762 3.026695 -83.475833 54.157584 -9.209015 4.715681 -0.000000 0.000000 0.000000 -116.770635 -69.712223 -63.917887 49.737762 -3.026670 83.475833 0.000001 0.000004 0.000000 
0.000000 0.000000 0.000000 -0.000000 0.000000 -0.000000 -0.000000 0.000000 -0.000000 -0.000000 0.000000 0.000000 -0.000000 0.000000 -0.000000 -0.000000 0.000000 -0.000000 -0.000000 0.000000 -0.000000 -0.000000 0.000000 0.000000 -0.000000 0.000000 -0.000000 -0.000000 -0.000000 -0.000000 -0.000000 0.000000 -0.000000 -0.000000 0.000000 -0.000000 -0.000000 0.000000 -0.000000 -0.000000 -0.000003 -0.000001 -116.565047 69.715789 63.434972 48.187049 4.195351 -80.635062 54.157581 -9.209019 4.715682 -0.000000 0.000000 0.000000 -116.770635 -69.712223 -63.917887 48.187053 -4.195328 80.635069 -0.000001 0.000000 -0.000003 
0.000000 0.000000 0.000000 -0.000000 0.000000 -0.000000 -0.000000 0.000000 -0.000000 -0.000000 0.000000 0.000000 -0.000000 0.000000 -0.000000 -0.000000 0.000000 -0.000000 -0.000000 0.000000 -0.000000 -0.000000 0.000000 0.000000 -0.000000 0.000000 -0.000000 -0.000000 -0.000000 -0.000000 -0.000000 0.000000 -0.000000 -0.000000 0.000000 -0.000000 -0.000000 0.000000 -0.000000 -0.000000 -0.000003 -0.000001 -116.565047 69.715789 63.434972 47.489554 4.682427 -79.380349 54.157581 -9.209017 4.715681 -0.000000 0.000000 0.000000 -116.770635 -69.712223 -63.917887 47.489554 -4.682406 79.380349 0.000001 0.000001 -0.000004 
